<svg width="4" height="14" viewBox="0 0 4 14" fill="none" xmlns="http://www.w3.org/2000/svg">
<path d="M2 3.66683C2.91666 3.66683 3.66666 2.91683 3.66666 2.00016C3.66666 1.0835 2.91666 0.333496 2 0.333496C1.08333 0.333496 0.333328 1.0835 0.333328 2.00016C0.333328 2.91683 1.08333 3.66683 2 3.66683ZM2 5.3335C1.08333 5.3335 0.333328 6.0835 0.333328 7.00016C0.333328 7.91683 1.08333 8.66683 2 8.66683C2.91666 8.66683 3.66666 7.91683 3.66666 7.00016C3.66666 6.0835 2.91666 5.3335 2 5.3335ZM2 10.3335C1.08333 10.3335 0.333328 11.0835 0.333328 12.0002C0.333328 12.9168 1.08333 13.6668 2 13.6668C2.91666 13.6668 3.66666 12.9168 3.66666 12.0002C3.66666 11.0835 2.91666 10.3335 2 10.3335Z" fill="#16385C" fill-opacity="0.54"/>
</svg>
